<mxfile host="app.diagrams.net" modified="2024-01-05T14:23:00.866Z" agent="Mozilla/5.0 (X11; Linux x86_64) AppleWebKit/537.36 (KHTML, like Gecko) Chrome/120.0.0.0 Safari/537.36" version="22.1.16" etag="Xw4uP_NrwoQ1fCm56lxJ" type="github">
  <diagram name="Halaman-1" id="ZgCPECMlS28WgSOR6ZY7">
    <mxGraphModel>
      <root>
        <mxCell id="0" />
        <mxCell id="1" parent="0" />
      </root>
    </mxGraphModel>
  </diagram>
</mxfile>
